<svg width="28" height="28" viewBox="0 0 28 28" fill="none" xmlns="http://www.w3.org/2000/svg">
<path fill-rule="evenodd" clip-rule="evenodd" d="M18.9219 3.21651C19.2856 2.89829 19.8384 2.93514 20.1566 3.29882L23.6538 7.29559L23.6599 7.30259L24.1608 7.87501L23.6599 8.44744L23.6538 8.45444L20.1566 12.4512C19.8384 12.8149 19.2856 12.8517 18.9219 12.5335C18.5582 12.2153 18.5214 11.6625 18.8396 11.2988L21.0698 8.75001H4.87312V11.875C4.87312 12.3583 4.48137 12.75 3.99812 12.75C3.51487 12.75 3.12312 12.3583 3.12312 11.875V7.87501V7.00001H3.99812H21.0698L18.8396 4.4512C18.5214 4.08752 18.5582 3.53473 18.9219 3.21651ZM8.23886 23.8627C7.87518 24.181 7.32239 24.1441 7.00417 23.7804L3.507 19.7837L3.50087 19.7767L3 19.2042L3.50087 18.6318L3.507 18.6248L7.00417 14.628C7.32239 14.2644 7.87518 14.2275 8.23886 14.5457C8.60255 14.864 8.6394 15.4167 8.32118 15.7804L6.09097 18.3292H22.2877V15.2042C22.2877 14.721 22.6794 14.3292 23.1627 14.3292C23.6459 14.3292 24.0377 14.721 24.0377 15.2042V19.2042V20.0792H23.1627H6.09097L8.32118 22.628C8.6394 22.9917 8.60255 23.5445 8.23886 23.8627Z" fill="white"/>
</svg>
