<svg width="24" height="24" viewBox="0 0 24 24" fill="none" xmlns="http://www.w3.org/2000/svg">
<path fill-rule="evenodd" clip-rule="evenodd" d="M16.325 15.899L21.705 21.279C21.8941 21.4682 22.0003 21.7248 22.0002 21.9923C22.0001 22.2599 21.8937 22.5164 21.7045 22.7055C21.5153 22.8946 21.2587 23.0008 20.9912 23.0007C20.7236 23.0006 20.4671 22.8942 20.278 22.705L14.898 17.325C13.2897 18.5707 11.2673 19.1569 9.24214 18.9643C7.21699 18.7718 5.34124 17.815 3.99649 16.2886C2.65174 14.7622 1.939 12.7808 2.00326 10.7475C2.06753 8.71427 2.90396 6.78185 4.34242 5.34339C5.78087 3.90494 7.71329 3.0685 9.74656 3.00424C11.7798 2.93998 13.7612 3.65272 15.2876 4.99747C16.814 6.34222 17.7708 8.21796 17.9634 10.2431C18.1559 12.2683 17.5697 14.2907 16.324 15.899H16.325ZM10 17C11.5913 17 13.1174 16.3678 14.2427 15.2426C15.3679 14.1174 16 12.5913 16 11C16 9.40869 15.3679 7.88257 14.2427 6.75735C13.1174 5.63213 11.5913 4.99999 10 4.99999C8.40871 4.99999 6.88259 5.63213 5.75737 6.75735C4.63215 7.88257 4.00001 9.40869 4.00001 11C4.00001 12.5913 4.63215 14.1174 5.75737 15.2426C6.88259 16.3678 8.40871 17 10 17Z" fill="white"/>
</svg>
