<svg width="28" height="27" viewBox="0 0 28 27" fill="none" xmlns="http://www.w3.org/2000/svg">
    <path d="M1 18V23C1 24.6569 2.34315 26 4 26H24C25.6569 26 27 24.6569 27 23V18" stroke="#212A36" stroke-width="2" />
    <path
        d="M14.7071 0.292892C14.3166 -0.0976315 13.6834 -0.0976315 13.2929 0.292892L6.92893 6.65685C6.53841 7.04738 6.53841 7.68054 6.92893 8.07107C7.31946 8.46159 7.95262 8.46159 8.34315 8.07107L14 2.41421L19.6569 8.07107C20.0474 8.46159 20.6805 8.46159 21.0711 8.07107C21.4616 7.68054 21.4616 7.04738 21.0711 6.65685L14.7071 0.292892ZM15 18L15 1H13L13 18H15Z"
        fill="#212A36" />
</svg>